<svg xmlns="http://www.w3.org/2000/svg" version="1.1" xmlns:xlink="http://www.w3.org/1999/xlink" width="512" height="512" x="0" y="0" viewBox="0 0 68 68" style="enable-background:new 0 0 512 512" xml:space="preserve" class=""><g><path stroke="#000" stroke-linecap="round" stroke-linejoin="round" stroke-miterlimit="10" stroke-width="2" d="M58.6 60c-.3-.5-.6-.9-.6-.9-.3.4-.6.7-.9.9" fill="#00bf66" opacity="1" data-original="#000000"></path><path d="M42.2 65h-.4l-.2.2c-.4.3-.5.7-.4 1.1s.5.7 1 .7h.1c.5 0 .9-.5.9-1 0-.6-.5-1-1-1zM18.9 29.6l13.8 7.1c.1-.8.2-1.5.2-2.3l2.9 1.7c1.2.8 3.2.4 4.1-1.1.8-1.4.3-3.2-1.1-4.1l-6.2-3.6c-.5-4.1-1.5-7.2-1.6-7.5-1.2-3.6-5.1-5.6-8.7-4.5s-5.6 5-4.5 8.7c.3 1.2.8 3.3 1.1 5.6zM24.2 13.4c3 0 5.5-2.1 6-4.9l2.2.8c.6.2 1.1-.1 1.3-.6s-.1-1.1-.6-1.3l-2.8-1c-.4-3-3-5.4-6.1-5.4-1.8 0-3.5.8-4.6 2.1s-.1.1-.1.2c-1 1-1.5 2.4-1.5 3.9 0 3.4 2.8 6.2 6.2 6.2z" fill="#00bf66" opacity="1" data-original="#000000"></path><path d="M66.4 59.5c-.1-.3-.4-.5-.7-.6s-.6 0-.9.3c-2.3 2.3-3.9 2.9-4.8 3V62c.2-1.5-.9-3-1.2-3.5-.2-.2-.5-.4-.8-.4s-.6.2-.8.4c-1 1.3-2.8 1.4-3.5 1.4-.4-3-3.4-4.7-4.7-5.1-.4-.1-.8 0-1.1.3s-.3.8 0 1.2c.8 1.3.2 2.4-.4 3.1-1.7-2-4.7-2.1-4.8-2.1-.4 0-.7.2-.9.6s-.1.8.1 1.1c1 1.1 1.4 2.3 1.3 3.3-.2 1.3-1 2.2-1.5 2.6h-7c.2-.4.3-.9.3-1.5 0-1.9-1.6-3.5-3.5-3.5h-1.4l1.3-8c.1-.4.1-.7 0-1.1l-1.2-7.7c.2-.2.4-.4.5-.7l-12.2-6.3c0 .1 0 .1-.1.2-.7 2.2-.2 4.5 1.1 6.3l1.4 8.6L19.3 63c-.1.7 0 1.4.3 2H1.9c-.6 0-1 .4-1 1 0 .5.4 1 1 1H64.1c.2 0 .3 0 .5-.1 3.3-1.7 2.6-5.6 1.8-7.4z" fill="#00bf66" opacity="1" data-original="#000000"></path><path d="m2.8 30 7.6 4.1c.5.3 1.1.1 1.4-.4l1.3-2.5 44.5 22.7v.8c-1.3.1-2.4.7-3.2 1.6.3.4.6.9.8 1.4.2-.1.4-.2.5-.4 1.4-1.8 4.4-1.9 5.9 1.9.5-.3 1.1-.8 1.8-1.5l.3-.3c-.8-1.5-2.3-2.6-4.1-2.8v-1.3c0-.4-.2-.8-.5-.9L36.4 40.8l1-2.4h-.1c-.7 0-1.3-.1-1.9-.4l-.8 1.9-20.5-10.5 1.4-2.6c.1-.2.2-.5.1-.8s-.3-.5-.5-.6l-1.7-.9c1-2.4 0-5.2-2.3-6.4-2.5-1.4-5.6-.4-7 2.1l-.2.4-2.5 4.6c-.5.8-.6 1.8-.3 2.7S2 29.5 2.8 30z" fill="#00bf66" opacity="1" data-original="#000000"></path></g></svg>