<svg xmlns="http://www.w3.org/2000/svg" version="1.1" xmlns:xlink="http://www.w3.org/1999/xlink" width="512" height="512" x="0" y="0" viewBox="0 0 64 64" style="enable-background:new 0 0 512 512" xml:space="preserve"><g><path d="M8.58 34.75c-.43-.35-.45-1.01-.08-1.42.36-.39.96-.45 1.36-.11.87.71 1.82 1.33 2.84 1.85.51.14 1 .33 1.48.54.24-1.03-.02-2.14-.74-2.96l-.19-.22a5.28 5.28 0 0 0-3.14-1.73l-3.49-.54c-.53-.08-1.05.14-1.36.58-.31.45-.34 1.02-.08 1.5l1.79 3.22a5.279 5.279 0 0 0 3.5 2.61c.22.05.44.07.66.07.7 0 1.36-.26 1.89-.69-.55-.28-.98-.47-.98-.47-1.24-.62-2.4-1.37-3.46-2.24zM27.77 24.65c-.31-.47-.84-.72-1.42-.63l-3.84.54c-1.3.18-2.5.78-3.38 1.7l-.21.22c-.82.85-1.1 2-.81 3.07.29-.11.58-.21.89-.29 0 0 2.35-1.46 3.41-2.3a.978.978 0 0 1 1.39.15c.36.45.31 1.14-.14 1.5-1.19.94-2.49 1.75-3.9 2.41 0 0-.22.09-.53.23a3.367 3.367 0 0 0 2.83.7c1.59-.31 2.97-1.25 3.78-2.58l1.97-3.22c.28-.46.27-1.03-.02-1.49zM13.01 24.01s-2.69-3.21-4.2-4.5c-.42-.36-.51-1-.18-1.45.34-.47.98-.57 1.42-.2 1.63 1.39 3.12 3.01 4.46 4.82.16.14.31.29.46.45.76-1.19.87-2.78.23-4.16-.89-1.93-2.48-3.39-4.37-4.01l-4.82-1.58c-.57-.19-1.16-.03-1.57.4-.42.45-.54 1.12-.31 1.72l1.97 4.95c.63 1.59 1.75 2.93 3.16 3.77l.35.21c.66.4 1.37.59 2.07.59.64 0 1.27-.18 1.84-.5-.17-.2-.34-.37-.51-.49z" fill="#00bf66" opacity="1" data-original="#000000"></path><path d="M27 54h-1.35l.26-1.03c.2-.82.05-1.68-.43-2.38-.47-.68-1.2-1.14-2.01-1.27l.14-.47c.5-1.64-.32-3.39-1.91-4.08l-1.33-.58-1.01-.98a4.266 4.266 0 0 0-2.35-1.14v-9.7c.55-.39 1.59-.87 2.22-1.14a2.94 2.94 0 0 1-.69-.76l-.06-.09c-.16-.27-.28-.55-.36-.84-.38.14-.76.3-1.12.49v-1.21c0-1.93-.55-3.7-1.57-5.12-.15-.21-.3-.39-.46-.57-.13.2-.27.4-.44.58l-.1.11c-.27.29-.58.5-.91.69.1.11.19.22.29.36.78 1.08 1.2 2.45 1.2 3.95v7.2c-.27-.15-.54-.27-.82-.39-.07.3-.17.59-.33.87l-.05.09c-.2.36-.48.64-.78.89.66.33 1.49.78 1.98 1.17v3.6c-.5.17-.96.42-1.38.78l-1 .24c-1.16.28-2.13 1-2.74 2.01a4.19 4.19 0 0 0-.47 3.24l.06.23-2.82.67c-.88.21-1.55.88-1.75 1.74l-.68 2.86H3.02c-.55 0-1 .45-1 1s.45 1 1 1H27c.55 0 1-.45 1-1s-.45-1-1-1zm-13-3c-.55 0-1-.45-1-1s.45-1 1-1 1 .45 1 1-.45 1-1 1zm3-3c-.55 0-1-.45-1-1s.45-1 1-1 1 .45 1 1-.45 1-1 1zm2 5c-.55 0-1-.45-1-1s.45-1 1-1 1 .45 1 1-.45 1-1 1z" fill="#00bf66" opacity="1" data-original="#000000"></path><circle cx="39" cy="12" r="6" fill="#00bf66" opacity="1" data-original="#000000"></circle><path d="M58.01 51.11H45.02l3.48-5.07c1.8-2.16 2.62-4.99 2.25-7.76l-2.04-15.1c-.16-1.14-.7-2.2-1.53-2.96a4.5 4.5 0 0 0-3.07-1.21c-1.3 0-2.55.58-3.43 1.58a4.94 4.94 0 0 0-1.16 3.95l.22 1.67-4.55 4.67-5.77 1.32c-.92.21-1.69.83-2.1 1.69-.38.79-.4 1.68-.09 2.49l-2.22 2.22-.79-.79a.996.996 0 0 0-1.41 0l-.79.79c-1.14 1.14-1.93 2.51-2.23 3.86l-.45 2.04c-.07.33.03.68.27.92.19.19.44.29.71.29.07 0 .14 0 .22-.02l2.04-.45c1.35-.3 2.72-1.09 3.86-2.23l.79-.79a.996.996 0 0 0 0-1.41l-.79-.79 2.06-2.06c.48.3 1.04.46 1.61.46.23 0 .45-.03.68-.08l7.08-1.61c.17-.04.32-.12.45-.24l2.53-2.3 1 7.4c.13.99-.14 1.97-.77 2.76l-5.04 6.37c-.54.69-.84 1.54-.84 2.4 0 2.15 1.78 3.9 3.96 3.9h18.88c.8 0 1.55-.31 2.09-.85.58-.55.9-1.29.9-2.1 0-1.62-1.34-2.95-2.99-2.95z" fill="#00bf66" opacity="1" data-original="#000000"></path></g></svg>