<svg xmlns="http://www.w3.org/2000/svg" version="1.1" xmlns:xlink="http://www.w3.org/1999/xlink" width="512" height="512" x="0" y="0" viewBox="0 0 512.001 512" style="enable-background:new 0 0 512 512" xml:space="preserve" class=""><g><path d="m510.246 457.547-21.074-40.613a49.788 49.788 0 0 0-37.512-26.407l-51.781-7.023v-16.461h11.223c3.253 0 5.89-2.64 5.89-5.895V349.04a5.89 5.89 0 0 0-5.89-5.89h-70.883a5.89 5.89 0 0 0-5.89 5.89v12.11a5.893 5.893 0 0 0 5.89 5.894h11.222v9.898l-62.046-8.414a21.97 21.97 0 0 0-6.024.13l-52.957-109.61a36.521 36.521 0 0 1-19.25 6.777l55.852 115.274a21.737 21.737 0 0 0-1.98 9.105v73.39c0 9.098 7.374 16.47 16.468 16.47h15.234a37.077 37.077 0 0 1-1.047-8.72c0-20.394 16.594-36.988 36.989-36.988 20.398 0 36.992 16.594 36.992 36.989 0 3.004-.371 5.922-1.05 8.719h41.523a36.872 36.872 0 0 1-1.047-8.72c0-20.394 16.59-36.988 36.988-36.988 20.394 0 36.988 16.594 36.988 36.989 0 3.004-.367 5.922-1.047 8.719h14.887c.328 0 .648-.008.969-.028 10.976-.637 17.43-12.726 12.363-22.488zM142.55 43.602c0 24.078-19.519 43.601-43.6 43.601-24.079 0-43.602-19.523-43.602-43.601C55.348 19.52 74.87 0 98.949 0c24.082 0 43.602 19.52 43.602 43.602zm0 0" fill="#00bf66" opacity="1" data-original="#000000" class=""></path><path d="M226.25 238.75c5.098-9.418 1.594-21.188-7.824-26.285l-69.469-37.602-43.988-52.39 42.68 31.859v-22.941c0-16.266-13.184-29.453-29.454-29.453H65.672c-16.266 0-29.453 13.187-29.453 29.453v151.117h.195c-.184 1.715.082-2.778-3.36 78.883L1.09 464.59c-3.957 12.785 3.2 26.363 15.984 30.324 12.828 3.973 26.375-3.242 30.324-15.984L80.29 372.727c.621-2 .977-4.07 1.066-6.16l3.364-80.43c.05-1.23.008-2.442-.117-3.63h11.015l30.621 78.345 15.543 114.18c1.805 13.25 14.004 22.558 27.285 20.75 13.266-1.81 22.555-14.024 20.75-27.29L173.883 351.45a24.383 24.383 0 0 0-1.446-5.554l-24.792-63.426v-44.922l-28.473-15.414c-2.969-1.95-7.703-2.965-10.54-8.594l-33.366-66.125 46.363 55.215a19.39 19.39 0 0 0 5.621 4.586l72.71 39.355c9.423 5.098 21.188 1.598 26.29-7.82zM332.684 446.688c-13.598 0-24.66 11.058-24.66 24.656s11.062 24.66 24.66 24.66 24.66-11.063 24.66-24.66-11.063-24.656-24.66-24.656zm0 32.875c-4.536 0-8.223-3.684-8.223-8.22 0-4.53 3.687-8.218 8.223-8.218 4.53 0 8.218 3.688 8.218 8.219 0 4.535-3.687 8.219-8.218 8.219zM446.086 446.688c-13.598 0-24.66 11.058-24.66 24.656s11.062 24.66 24.66 24.66 24.66-11.063 24.66-24.66-11.062-24.656-24.66-24.656zm0 32.875c-4.535 0-8.219-3.684-8.219-8.22 0-4.53 3.684-8.218 8.219-8.218 4.531 0 8.219 3.688 8.219 8.219 0 4.535-3.688 8.219-8.22 8.219zm0 0" fill="#00bf66" opacity="1" data-original="#000000" class=""></path></g></svg>