<svg xmlns="http://www.w3.org/2000/svg" version="1.1" xmlns:xlink="http://www.w3.org/1999/xlink" width="512" height="512" x="0" y="0" viewBox="0 0 511.105 511.105" style="enable-background:new 0 0 512 512" xml:space="preserve" class=""><g><path d="M252.037 179.272c11.654-.58 20.075 5.097 20.343 10.545.157 3.185-2.248 5.761-3.994 7.2 5.531 7.196 8.047 16.584 6.327 26.032 3.951.221 7.021 1.661 8.35 3.95 1.752 3.017.445 6.799-.491 8.784-1.991 4.229-5.943 8.285-10.841 11.129-6.042 3.507-15.337 5.721-20.806 2.117a32.84 32.84 0 0 1-16.032.343 19.814 19.814 0 0 0 1.897 4.488c6.36 10.959 24.03 15.468 41.923 5.081 13.1-7.604 23.217-22.842 17.543-36.565l23.144-13.435 29.755-1.832a100.223 100.223 0 0 0 60.417-24.11l-49.695 2.446 43.301-25.136a100.217 100.217 0 0 0-63.812 12.632l-25.437 14.766-27.664 1.362c-.745-14.216-16.034-24.617-34.912-23.688h.001c-10.271.505-21.099 4.575-27.486 12.627l16.263 4.384c3.386-1.792 7.558-2.906 11.906-3.12z" fill="#00bf66" opacity="1" data-original="#000000"></path><circle cx="174.435" cy="44.981" r="44.969" transform="rotate(-45 174.44 45.017)" fill="#00bf66" opacity="1" data-original="#000000"></circle><path d="M242.228 237.546c8.983 0 17.209-5.988 19.659-15.076 2.929-10.865-3.504-22.047-14.369-24.975l-70.489-19.001-42.728-43.396 30.442 21.084c6.086-24.866-6.63-50.992-30.765-61.193-34.507-14.585-74.575 3.183-86.55 39.144l-34.78 104.124a93.397 93.397 0 0 0-4.087 41.205l11.016 87.925L2.544 481.954c-2.276 15.31 9.57 29.151 25.167 29.151 12.38-.001 23.227-9.063 25.103-21.678L70.351 371.47c.335-2.25.365-4.535.091-6.793l-9.029-74.515 12.174 1.619 21.14 77.493-16.753 112.68c-2.276 15.31 9.57 29.151 25.167 29.151 12.38-.001 23.227-9.063 25.103-21.678l17.538-117.958c.517-3.48.306-7.03-.62-10.425l-23.812-87.291 20.559-55.196-32.545-50.708 42.507 43.172a20.362 20.362 0 0 0 9.215 5.377l75.826 20.44c1.776.48 3.56.708 5.316.708z" fill="#00bf66" opacity="1" data-original="#000000"></path><path d="M493.077 314.161h-39.264l7.436-7.446c7.991.281 20.31-.716 27.884-8.289 8.564-8.564 8.72-23.207 8.127-30.785a5.917 5.917 0 0 0-5.445-5.445c-7.578-.593-22.221-.437-30.785 8.127-7.587 7.587-8.573 19.937-8.287 27.927l-14.019 14.037a5.961 5.961 0 0 0-1.258 1.873h-14.599v-63.084a6 6 0 0 0-12 0v29.338l-3.812-3.807c.28-7.991-.716-20.31-8.289-27.883-8.564-8.564-23.207-8.72-30.785-8.127a5.917 5.917 0 0 0-5.445 5.445c-.593 7.578-.436 22.221 8.127 30.785 7.587 7.587 19.937 8.573 27.927 8.287l12.277 12.261v16.786h-51.209l6.098-24.537a6 6 0 0 0-4.376-7.27 6 6 0 0 0-7.271 4.375l-6.349 25.545-10.279-10.266c.281-7.991-.716-20.31-8.289-27.883-8.564-8.564-23.207-8.72-30.785-8.127a5.917 5.917 0 0 0-5.445 5.445c-.593 7.578-.437 22.221 8.127 30.785 7.587 7.587 19.937 8.573 27.927 8.287l3.651 3.646H194.003c-8.707 0-15.765 7.058-15.765 15.765V495.34c0 8.707 7.058 15.765 15.765 15.765h299.074c8.707 0 15.765-7.058 15.765-15.765V329.926c0-8.707-7.058-15.765-15.765-15.765z" fill="#00bf66" opacity="1" data-original="#000000"></path></g></svg>